HIERARCHY
ROOT Hips
{
  OFFSET 44.1777 81.3448 -17.6035
  CHANNELS 6 Xposition Yposition Zposition Zrotation Xrotation Yrotation
  JOINT Chest
  {
    OFFSET 1.23234e-007 14.8421 1.27321e-009
    CHANNELS 6 Xposition Yposition Zposition Zrotation Xrotation Yrotation
    JOINT Neck
    {
      OFFSET 0.51659 29.8236 6.51843
      CHANNELS 6 Xposition Yposition Zposition Zrotation Xrotation Yrotation
      JOINT Head
      {
        OFFSET 1.16803e-007 7.47049 6.44171e-007
        CHANNELS 6 Xposition Yposition Zposition Zrotation Xrotation Yrotation
        End Site
        {
          OFFSET -4.32676e-008 16.2908 2.16786e-007
        }
      }
    }
    JOINT LeftCollar
    {
      OFFSET 6.64893 27.3161 3.27471
      CHANNELS 6 Xposition Yposition Zposition Zrotation Xrotation Yrotation
      JOINT LeftUpArm
      {
        OFFSET 10.8584 2.41798 -0.945791
        CHANNELS 6 Xposition Yposition Zposition Zrotation Xrotation Yrotation
        JOINT LeftLowArm
        {
          OFFSET 3.77631 -24.5904 -1.70468
          CHANNELS 6 Xposition Yposition Zposition Zrotation Xrotation Yrotation
          JOINT LeftHand
          {
            OFFSET 1.01026 -21.1231 1.74131
            CHANNELS 6 Xposition Yposition Zposition Zrotation Xrotation Yrotation
            End Site
            {
              OFFSET 1.17583e-006 -9.81266 -2.89439e-008
            }
          }
        }
      }
    }
    JOINT RightCollar
    {
      OFFSET -6.11406 27.2248 4.23427
      CHANNELS 6 Xposition Yposition Zposition Zrotation Xrotation Yrotation
      JOINT RightUpArm
      {
        OFFSET -10.4566 2.3285 -0.910794
        CHANNELS 6 Xposition Yposition Zposition Zrotation Xrotation Yrotation
        JOINT RightLowArm
        {
          OFFSET -3.86856 -25.191 -1.74633
          CHANNELS 6 Xposition Yposition Zposition Zrotation Xrotation Yrotation
          JOINT RightHand
          {
            OFFSET -1.04759 -20.6242 1.75213
            CHANNELS 6 Xposition Yposition Zposition Zrotation Xrotation Yrotation
            End Site
            {
              OFFSET -2.03487e-006 -9.50367 -4.31372e-006
            }
          }
        }
      }
    }
  }
  JOINT LeftUpLeg
  {
    OFFSET 9 -3.38008e-006 -5.23002e-009
    CHANNELS 6 Xposition Yposition Zposition Zrotation Xrotation Yrotation
    JOINT LeftLowLeg
    {
      OFFSET -0.575 -51.431 3.90177
      CHANNELS 6 Xposition Yposition Zposition Zrotation Xrotation Yrotation
      JOINT LeftFoot
      {
        OFFSET 2.13082e-007 -43.5882 -3.90177
        CHANNELS 6 Xposition Yposition Zposition Zrotation Xrotation Yrotation
        End Site
        {
          OFFSET 7.44796e-007 -6.93413 15.0046
        }
      }
    }
  }
  JOINT RightUpLeg
  {
    OFFSET -9 6.86154e-007 -3.19543e-009
    CHANNELS 6 Xposition Yposition Zposition Zrotation Xrotation Yrotation
    JOINT RightLowLeg
    {
      OFFSET 0.575 -51.4311 3.90177
      CHANNELS 6 Xposition Yposition Zposition Zrotation Xrotation Yrotation
      JOINT RightFoot
      {
        OFFSET -7.46079e-007 -43.5882 -3.90177
        CHANNELS 6 Xposition Yposition Zposition Zrotation Xrotation Yrotation
        End Site
        {
          OFFSET 4.66716e-007 -6.93413 15.0046
        }
      }
    }
  }
}
MOTION
Frames:	10
Frame Time:	0.0333333
44.1777 81.3448 -17.6035 1.65347 -6.19294 -0.830726 1.23234e-007 14.8421 1.27321e-009 -0.760748 6.95174 -2.02504 0.51659 29.8236 6.51843 -4.10553 -13.5805 0.0562705 1.16803e-007 7.47049 6.44171e-007 1.4791 11.0318 -0.920188 6.64893 27.3161 3.27471 -2.94784 5.93879 -4.20517 10.8584 2.41798 -0.945791 64.6612 -66.8943 13.7303 3.77631 -24.5904 -1.70468 0.180765 -28.2288 -46.3231 1.01026 -21.1231 1.74131 2.00844 -5.69701 -0.354499 -6.11406 27.2248 4.23427 -1.96452 7.32629 3.42623 -10.4566 2.3285 -0.910794 -50.7917 -76.5964 3.84007 -3.86856 -25.191 -1.74633 -1.61245 -21.7233 73.315 -1.04759 -20.6242 1.75213 -14.8199 -1.85522 -1.7551 9 -3.38008e-006 -5.23002e-009 18.5661 -21.6481 17.5783 -0.575 -51.431 3.90177 11.9212 65.551 -42.4674 2.13082e-007 -43.5882 -3.90177 13.3877 -24.0498 1.42939 -9 6.86154e-007 -3.19543e-009 -24.5665 -23.4713 -19.435 0.575 -51.4311 3.90177 -11.7508 62.8435 28.1427 -7.46079e-007 -43.5882 -3.90177 -17.8847 -19.3719 -1.19356 
44.2011 81.359 -17.579 1.67739 -6.11011 -0.819761 1.23234e-007 14.8421 1.27321e-009 -0.81254 6.80808 -2.11643 0.51659 29.8236 6.51843 -4.00691 -13.207 0.0552288 1.16803e-007 7.47049 6.44171e-007 1.47443 10.6205 -0.900935 6.64893 27.3161 3.27471 -2.94784 5.93879 -4.20517 10.8584 2.41798 -0.945791 63.1379 -66.8696 12.4237 3.77631 -24.5904 -1.70468 0.34708 -28.1828 -45.1841 1.01026 -21.1231 1.74131 1.23272 -6.10454 -0.511916 -6.11406 27.2248 4.23427 -1.96452 7.32629 3.42623 -10.4566 2.3285 -0.910794 -48.717 -76.7104 5.54946 -3.86856 -25.191 -1.74633 -1.97176 -21.1448 72.9755 -1.04759 -20.6242 1.75213 -14.4057 -2.27548 -1.7195 9 -3.38008e-006 -5.23002e-009 18.5275 -21.7208 17.5681 -0.575 -51.431 3.90177 11.8806 65.5513 -42.4017 2.13082e-007 -43.5882 -3.90177 13.3616 -23.9838 1.41838 -9 6.86154e-007 -3.19543e-009 -24.6427 -23.6448 -19.4814 0.575 -51.4311 3.90177 -11.8258 62.9942 28.3019 -7.46079e-007 -43.5882 -3.90177 -17.7351 -18.8498 -1.10421 
44.2441 81.3769 -17.5349 1.71326 -6.03389 -0.736682 1.23234e-007 14.8421 1.27321e-009 -0.889517 6.77716 -2.20087 0.51659 29.8236 6.51843 -4.01549 -13.124 0.04047 1.16803e-007 7.47049 6.44171e-007 1.61299 10.6093 -0.955097 6.64893 27.3161 3.27471 -2.94784 5.93879 -4.20517 10.8584 2.41798 -0.945791 61.7335 -67.0016 11.0851 3.77631 -24.5904 -1.70468 0.461082 -27.9499 -44.78 1.01026 -21.1231 1.74131 0.648708 -6.34969 -0.627812 -6.11406 27.2248 4.23427 -1.96452 7.32629 3.42623 -10.4566 2.3285 -0.910794 -46.9438 -76.6415 7.05297 -3.86856 -25.191 -1.74633 -2.28538 -20.6533 72.5959 -1.04759 -20.6242 1.75213 -14.0583 -2.86309 -1.7053 9 -3.38008e-006 -5.23002e-009 18.4318 -21.8193 17.4929 -0.575 -51.431 3.90177 11.8843 65.5816 -42.3512 2.13082e-007 -43.5882 -3.90177 13.3306 -23.8956 1.40412 -9 6.86154e-007 -3.19543e-009 -24.7821 -23.7591 -19.5985 0.575 -51.4311 3.90177 -11.8663 63.141 28.456 -7.46079e-007 -43.5882 -3.90177 -17.5824 -18.2466 -1.00321 
44.245 81.348 -17.4678 1.67666 -6.073 -0.656668 1.23234e-007 14.8421 1.27321e-009 -1.10161 6.20557 -2.23834 0.51659 29.8236 6.51843 -3.85937 -11.6802 0.0833871 1.16803e-007 7.47049 6.44171e-007 1.72141 10.1843 -0.929861 6.64893 27.3161 3.27471 -2.94784 5.93879 -4.20517 10.8584 2.41798 -0.945791 57.8293 -68.1734 7.06563 3.77631 -24.5904 -1.70468 2.43433 -25.1796 -43.5084 1.01026 -21.1231 1.74131 0.703121 -6.26475 -0.613603 -6.11406 27.2248 4.23427 -1.96452 7.32629 3.42623 -10.4566 2.3285 -0.910794 -38.6987 -77.0865 14.7929 -3.86856 -25.191 -1.74633 -4.55367 -17.3851 72.3583 -1.04759 -20.6242 1.75213 -13.818 -2.70587 -1.66136 9 -3.38008e-006 -5.23002e-009 18.4603 -21.8032 17.4658 -0.575 -51.431 3.90177 11.9921 65.663 -42.4944 2.13082e-007 -43.5882 -3.90177 13.3628 -23.949 1.41431 -9 6.86154e-007 -3.19543e-009 -24.7792 -23.6502 -19.6395 0.575 -51.4311 3.90177 -11.8517 63.1819 28.3448 -7.46079e-007 -43.5882 -3.90177 -17.6162 -18.3745 -1.02457 
44.2346 81.3097 -17.3994 1.66983 -6.128 -0.619045 1.23234e-007 14.8421 1.27321e-009 -1.23246 5.56419 -2.34642 0.51659 29.8236 6.51843 -3.99768 -10.0108 0.225742 1.16803e-007 7.47049 6.44171e-007 1.99883 9.47042 -0.926429 6.64893 27.3161 3.27471 -2.94784 5.93879 -4.20517 10.8584 2.41798 -0.945791 53.5564 -69.143 2.90528 3.77631 -24.5904 -1.70468 4.23748 -22.0875 -42.2514 1.01026 -21.1231 1.74131 0.678887 -6.13267 -0.610597 -6.11406 27.2248 4.23427 -1.96452 7.32629 3.42623 -10.4566 2.3285 -0.910794 -28.4116 -77.6913 24.7934 -3.86856 -25.191 -1.74633 -7.10569 -13.4297 72.7088 -1.04759 -20.6242 1.75213 -12.5509 -2.73884 -1.47822 9 -3.38008e-006 -5.23002e-009 18.4844 -21.7364 17.458 -0.575 -51.431 3.90177 12.046 65.7206 -42.5951 2.13082e-007 -43.5882 -3.90177 13.3927 -24.0173 1.42605 -9 6.86154e-007 -3.19543e-009 -24.7985 -23.5831 -19.6716 0.575 -51.4311 3.90177 -11.9 63.2889 28.302 -7.46079e-007 -43.5882 -3.90177 -17.6053 -18.395 -1.02676 
44.2415 81.2683 -17.3686 1.66392 -6.09801 -0.674109 1.23234e-007 14.8421 1.27321e-009 -1.14568 5.6751 -2.35263 0.51659 29.8236 6.51843 -4.30513 -10.2503 0.344904 1.16803e-007 7.47049 6.44171e-007 2.20979 9.63035 -0.942315 6.64893 27.3161 3.27471 -2.94784 5.93879 -4.20517 10.8584 2.41798 -0.945791 53.4024 -68.995 3.15797 3.77631 -24.5904 -1.70468 4.05164 -22.0959 -42.9316 1.01026 -21.1231 1.74131 0.689717 -5.99003 -0.600631 -6.11406 27.2248 4.23427 -1.96452 7.32629 3.42623 -10.4566 2.3285 -0.910794 -28.2838 -77.656 25.0664 -3.86856 -25.191 -1.74633 -6.94463 -13.5545 72.9444 -1.04759 -20.6242 1.75213 -12.3284 -2.97977 -1.45658 9 -3.38008e-006 -5.23002e-009 18.5043 -21.7705 17.4644 -0.575 -51.431 3.90177 12.0814 65.8285 -42.5509 2.13082e-007 -43.5882 -3.90177 13.4065 -24.0655 1.43351 -9 6.86154e-007 -3.19542e-009 -24.8059 -23.6526 -19.6511 0.575 -51.4311 3.90177 -11.9421 63.363 28.381 -7.46079e-007 -43.5882 -3.90177 -17.5958 -18.3539 -1.02002 
44.2496 81.2261 -17.3609 1.62806 -6.09 -0.801218 1.23234e-007 14.8421 1.27321e-009 -1.09124 5.88325 -2.28972 0.51659 29.8236 6.51843 -4.30317 -10.8599 0.392723 1.16803e-007 7.47049 6.44171e-007 2.08649 10.1312 -0.861226 6.64893 27.3161 3.27471 -2.94784 5.93879 -4.20517 10.8584 2.41798 -0.945791 53.5534 -68.8361 3.44542 3.77631 -24.5904 -1.70468 3.9037 -22.3678 -42.8046 1.01026 -21.1231 1.74131 0.445891 -6.14632 -0.652587 -6.11406 27.2248 4.23427 -1.96452 7.32629 3.42623 -10.4566 2.3285 -0.910794 -29.5772 -77.4411 23.9334 -3.86856 -25.191 -1.74633 -6.45403 -14.4561 72.7702 -1.04759 -20.6242 1.75213 -12.7927 -3.47331 -1.54562 9 -3.38008e-006 -5.23003e-009 18.5722 -21.7769 17.5154 -0.575 -51.431 3.90177 12.1201 65.9405 -42.5462 2.13082e-007 -43.5882 -3.90177 13.4103 -24.0786 1.43555 -9 6.86154e-007 -3.19542e-009 -24.739 -23.7342 -19.5467 0.575 -51.4311 3.90177 -11.9962 63.4038 28.4642 -7.46079e-007 -43.5882 -3.90177 -17.6316 -18.4345 -1.03453 
44.2781 81.1843 -17.3574 1.60217 -6.11246 -0.855426 1.23234e-007 14.8421 1.27321e-009 -1.12709 5.95094 -2.24011 0.51659 29.8236 6.51843 -4.13686 -10.9082 0.401885 1.16803e-007 7.47049 6.44171e-007 1.8855 10.2996 -0.762291 6.64893 27.3161 3.27471 -2.94784 5.93879 -4.20517 10.8584 2.41798 -0.945791 52.7863 -69.2733 2.63618 3.77631 -24.5904 -1.70468 4.2483 -21.2849 -42.9994 1.01026 -21.1231 1.74131 0.987566 -5.91774 -0.545937 -6.11406 27.2248 4.23427 -1.96452 7.32629 3.42623 -10.4566 2.3285 -0.910794 -28.2 -77.4965 25.2848 -3.86856 -25.191 -1.74633 -6.82241 -13.8603 72.8562 -1.04759 -20.6242 1.75213 -12.7528 -3.4855 -1.54039 9 -3.38008e-006 -5.23003e-009 18.5869 -21.7926 17.5035 -0.575 -51.431 3.90177 12.1884 66.0536 -42.5186 2.13082e-007 -43.5882 -3.90177 13.3993 -24.0656 1.43267 -9 6.86154e-007 -3.19542e-009 -24.749 -23.77 -19.5389 0.575 -51.4311 3.90177 -12.0135 63.4761 28.5443 -7.46079e-007 -43.5882 -3.90177 -17.6289 -18.4331 -1.03412 
44.3159 81.141 -17.356 1.57477 -6.13814 -0.892664 1.23234e-007 14.8421 1.27321e-009 -1.18698 5.97007 -2.1639 0.51659 29.8236 6.51843 -3.77447 -10.3025 0.349886 1.16803e-007 7.47049 6.44171e-007 1.48413 9.68569 -0.622021 6.64893 27.3161 3.27471 -2.94784 5.93879 -4.20517 10.8584 2.41798 -0.945791 51.8572 -69.6355 1.90013 3.77631 -24.5904 -1.70468 4.5744 -20.2547 -43.5217 1.01026 -21.1231 1.74131 1.75193 -5.68355 -0.39803 -6.11406 27.2248 4.23427 -1.96452 7.32629 3.42623 -10.4566 2.3285 -0.910794 -27.1094 -77.4393 26.0391 -3.86856 -25.191 -1.74633 -7.14365 -13.4093 72.8189 -1.04759 -20.6242 1.75213 -12.7819 -3.38321 -1.54045 9 -3.38008e-006 -5.23003e-009 18.5745 -21.812 17.4616 -0.575 -51.431 3.90177 12.2605 66.1676 -42.4108 2.13082e-007 -43.5882 -3.90177 13.416 -24.1256 1.44191 -9 6.86154e-007 -3.19541e-009 -24.7636 -23.785 -19.5325 0.575 -51.4311 3.90177 -12.033 63.5266 28.5983 -7.46079e-007 -43.5882 -3.90177 -17.6309 -18.4425 -1.03565 
44.3396 81.1119 -17.366 1.54149 -6.09778 -0.942576 1.23234e-007 14.8421 1.27321e-009 -1.14136 5.92571 -2.12272 0.51659 29.8236 6.51843 -3.82527 -10.0294 0.4072 1.16803e-007 7.47049 6.44171e-007 1.57661 9.51298 -0.607746 6.64893 27.3161 3.27471 -2.94784 5.93879 -4.20517 10.8584 2.41798 -0.945791 50.7185 -69.6422 1.03019 3.77631 -24.5904 -1.70468 4.89543 -20.0529 -42.2972 1.01026 -21.1231 1.74131 0.638119 -6.06246 -0.614818 -6.11406 27.2248 4.23427 -1.96452 7.32629 3.42623 -10.4566 2.3285 -0.910794 -26.498 -77.3285 26.6897 -3.86856 -25.191 -1.74633 -7.16444 -13.3958 72.7009 -1.04759 -20.6242 1.75213 -12.7486 -2.71543 -1.506 9 -3.38008e-006 -5.23003e-009 18.6039 -21.8719 17.4744 -0.575 -51.431 3.90177 12.2901 66.2518 -42.3289 2.13082e-007 -43.5882 -3.90177 13.445 -24.1996 1.45433 -9 6.86154e-007 -3.19541e-009 -24.7545 -23.8444 -19.5241 0.575 -51.4311 3.90177 -12.0246 63.534 28.6094 -7.46079e-007 -43.5882 -3.90177 -17.6643 -18.5092 -1.04798 
